<svg xmlns="http://www.w3.org/2000/svg" width="18.745" height="16.402" viewBox="0 0 18.745 16.402"><g transform="translate(0 -1)"><g transform="translate(0 1)"><path d="M17.574,1H1.172A1.107,1.107,0,0,0,0,2.172v1.64L9.373,9.084l9.373-5.155V2.172A1.107,1.107,0,0,0,17.574,1Z" transform="translate(0 -1)" fill="#fff"/><path d="M8.787,10.621,0,5.7v9.724A1.107,1.107,0,0,0,1.172,16.6h16.4a1.107,1.107,0,0,0,1.172-1.172V5.7L9.958,10.621A1.456,1.456,0,0,1,8.787,10.621Z" transform="translate(0 -0.194)" fill="#fff"/></g></g></svg>