<svg xmlns="http://www.w3.org/2000/svg" viewBox="0 0 21.361 22.834"><g transform="translate(-3 5)"><g transform="translate(3 -5)"><path d="M21.957,39.809l-5.33-1.523V36.561a5.281,5.281,0,0,1-5.893,0v1.725L5.4,39.809A3.328,3.328,0,0,0,3,43V45.93a.368.368,0,0,0,.368.368H23.993a.368.368,0,0,0,.368-.368V43A3.328,3.328,0,0,0,21.957,39.809Z" transform="translate(-3 -23.464)" fill="#fff"/><path d="M22.524,1A5.531,5.531,0,0,0,17,6.524V8c0,2.956,2.363,6.261,5.524,6.261S28.049,10.953,28.049,8V6.524A5.531,5.531,0,0,0,22.524,1Z" transform="translate(-11.844 -1)" fill="#fff"/></g></g></svg>