<svg xmlns="http://www.w3.org/2000/svg" width="19.619" height="19.619" viewBox="0 0 19.619 19.619"><g transform="translate(-2 -2)"><g transform="translate(2 2)"><path d="M21.488,7.618,16,2.134A.446.446,0,0,0,15.689,2H7.93a.446.446,0,0,0-.315.131L2.131,7.618A.446.446,0,0,0,2,7.93v7.758A.446.446,0,0,0,2.131,16l5.484,5.484a.446.446,0,0,0,.315.131h7.758A.446.446,0,0,0,16,21.488L21.488,16a.446.446,0,0,0,.131-.315V7.93A.446.446,0,0,0,21.488,7.618ZM11.809,18.052a.892.892,0,1,1,.892-.892A.892.892,0,0,1,11.809,18.052Zm.466-3.491h-.915l-.443-9.223h1.8Z" transform="translate(-2 -2)" fill="#fff"/></g></g></svg>