<svg
    class="MuiSvgIcon-root jss86"
    focusable="false"
    viewBox="0 0 756 197"
    aria-hidden="true"
    role="presentation"
>
    <svg viewBox="0 0 756 197">
        <g>
            <path
                d="M292.9,126.6h-6.7c-9,0-12.6-1.9-12.6-9.5V48.5c0-7.7,1.6-8.6,11.4-9.7v-4.5h-41.3v4.5 c9.8,1.1,11.4,1.9,11.4,9.7v69.3c0,7.7-1.6,8.6-11.4,9.7v4.5h73.7l4.9-29.4h-4.4C308.5,119.6,303.9,126.6,292.9,126.6z"
            ></path>
            <path
                d="M385.5,121.1V79.3c0-15.8-9.4-22.4-26.6-22.4c-15,0-26.8,6.6-26.8,19.3c0,2.4,0.2,3.3,0.8,5h16.6 c-0.5-2-0.7-5-0.7-7.5c0-9.6,3.6-12.4,9.4-12.4c6.4,0,9.7,2,9.7,14.4v11.2l-20.8,7.7c-10.6,4.1-19.3,8.8-19.3,20.7 c0,10.9,7.5,17.8,18.6,17.8c9.9,0,17.4-6.2,21.9-12.1l0.1-0.1l0,0V132h26v-4.4C387.7,127.1,385.5,126.2,385.5,121.1z M368,117.8 c-4.4,3.3-7.6,5.3-12,5.4c-7.7,0-11.2-5.2-11.2-12.6c0-7.7,3.6-11.2,9.8-13.5l13.4-5.4V117.8L368,117.8z"
            ></path>
            <path
                d="M514.4,121V79.5c0-14.8-6-22.4-18.7-22.4c-11.5,0-19.4,6.6-25.5,13.9c-1.8-9.6-7.7-13.9-17.8-13.9 c-11.4,0-18.7,6.2-24.8,13.6V57h-2.3l-23.8,7.4v2.4l8.6,5v49.4c0,5-2.1,6.1-8.9,6.4v4.4h35.1v-4.4c-6.7-0.3-8.7-1.3-8.7-6.4v-47 c4.7-3.6,9.5-6.5,15.5-6.5c7.6,0,10.5,4.2,10.5,12.7v40.8c0,5-1.9,6.1-8.7,6.4v4.4l34.8,0v-4.4c-6.7-0.3-8.6-1.3-8.6-6.4v-47 c4.7-3.6,9.5-6.5,15.5-6.5c7.6,0,10.5,4.2,10.5,12.7l-0.1,40.5c0,5-1.8,6.4-8.6,6.7l0,4.4h35.1v-4.4 C516.7,127.4,514.4,126.1,514.4,121z"
            ></path>
            <path
                d="M573.2,57.3c-11,0-18.5,5.7-23.4,12.8V22.9h-2.7l-23.4,6.8v2.5l8.6,4.5V132h2.9l8-3.5c5.8,3.3,12.3,5,20.2,5 c20.8,0,37.4-15.8,37.4-42.6C600.9,69.9,590.4,57.3,573.2,57.3z M563.4,128.7c-5.4,0-10.3-2.4-13.7-7.9V73.6 c3.4-3.4,8.5-5.7,13.5-5.7c13.9,0,20,12.8,20,29.5C583.3,114.7,575.8,128.5,563.4,128.7z"
            ></path>
            <path
                d="M677,121.2V22.8h-2.6L651,29.6V32l8.6,4.5v25.7c-3.4-3.2-8.8-5.1-15.5-5.1c-19.9,0-35.2,15.3-35.2,41.3 c0,20.7,11.2,34.6,28.1,34.6c9.8,0,17-5.3,22.6-13.1v0.9V132h26.3l0-4.4C679.1,127.3,677,126.3,677,121.2z M659.6,117.1 L659.6,117.1c-3.4,3.4-8,5.1-13.2,5.1c-13.2,0-20.4-12.8-20.4-29.8c0-17.8,7.3-29.2,19.5-29.2c8.7,0,14.1,6.9,14.1,18.3 L659.6,117.1z"
            ></path>
            <path
                d="M747.1,121.1V79.3c0-15.8-9.4-22.4-26.6-22.4c-15,0-26.8,6.6-26.8,19.3c0,2.4,0.2,3.3,0.8,5h16.6 c-0.5-2-0.7-5-0.7-7.5c0-9.6,3.6-12.4,9.4-12.4c6.4,0,9.7,2,9.7,14.4v11.2l-20.8,7.7c-10.6,4.1-19.3,8.8-19.3,20.7 c0,10.9,7.5,17.8,18.6,17.8c9.9,0,17.4-6.2,21.9-12.1v-0.1h0.1l0,11.1l26,0.1v-4.5C749.3,127.1,747.1,126.2,747.1,121.1z M729.6,117.8c-4.4,3.3-7.6,5.3-12.1,5.4c-7.7,0-11.2-5.2-11.2-12.6c0-7.7,3.6-11.2,9.8-13.5l13.4-5.4L729.6,117.8L729.6,117.8z"
            ></path>
        </g>
        <path
            d="M0,0v90.4c0,65.7,50.9,88.5,88.1,105.2h0.1l3,1.4c0.7-0.4,1.4-0.7,2.2-1c0.4-0.2,0.9-0.4,1.3-0.6 c37.3-16.6,88.4-39.5,88.4-105V0H0z M116,132l-2-5.3l-26.6-70c-1.6,4.1-5.3,14-9.3,24.6l-15.3,41.3c-0.7,2-0.3,3,0.2,3.7 c1.1,1.3,3.5,1.3,7.3,1.3H71l0,4.4H42.4l0-4.4h2.2c3.9,0,7.1-1.7,9.5-6.5l2.9-6.6l26.5-67.8l-4.7-12.5h24.7l34.1,89.7l3.1,8.1H116z"
        ></path>
    </svg>
</svg>
